<?xml version="1.0" encoding="utf-8"?>
<!-- Generator: Adobe Illustrator 26.0.2, SVG Export Plug-In . SVG Version: 6.00 Build 0)  -->
<svg version="1.1" id="레이어_1" xmlns="http://www.w3.org/2000/svg" xmlns:xlink="http://www.w3.org/1999/xlink" x="0px"
	 y="0px" viewBox="0 0 209 36" style="enable-background:new 0 0 209 36;" xml:space="preserve">
<style type="text/css">
	.st0{fill:none;}
	.st1{fill:none;}
	.st2{fill:#C41F26;}
</style>
<g>
	<rect x="0.31" y="0.53" class="st0" width="208.38" height="27.66"/>
	<g>
		<g>
			<rect id="XMLID_1_" x="0.31" y="0.53" class="st1" width="208.38" height="27.66"/>
			<g>
				<g>
					<polygon class="st2" points="107.16,15.25 102.62,11.56 102.59,11.53 100.6,11.53 100.6,17.18 102.42,17.18 102.42,13.52 
						106.75,17.16 106.77,17.18 109,17.18 109,11.53 107.16,11.53 					"/>
					<g>
						<path class="st2" d="M117.41,11.53h-1.07h-1.63h-1.83v0.26v1.17v2.79v1.18v0.13v0.13h1.83h1.72h1.07
							c1.13,0,3.71-0.07,3.71-2.83C121.21,11.59,118.55,11.53,117.41,11.53z M117.42,15.68h-0.46h-2.25v-2.66h1.3h0.87h0.45
							c0.51,0,1.93,0,1.93,1.33C119.26,15.68,117.98,15.68,117.42,15.68z"/>
					</g>
					<path class="st2" d="M93.57,11.53h-2.22l-4,5.65h2.3l0.61-0.93h4.39l0.6,0.93h2.31L93.57,11.53z M91,15.12l1.46-2.23l1.46,2.23
						H91z"/>
				</g>
				<g>
					<g>
						<g>
							<polygon class="st2" points="137.81,6.57 124.48,6.57 124.48,10.65 128.32,10.65 128.32,22.15 133.98,22.15 133.98,10.65 
								137.81,10.65 							"/>
						</g>
						<g>
							<polygon class="st2" points="185.21,6.57 171.87,6.57 171.87,10.65 175.71,10.65 175.71,22.15 181.37,22.15 181.37,10.65 
								185.21,10.65 							"/>
						</g>
						<g>
							<polygon class="st2" points="198.61,9.83 198.61,6.57 192.91,6.57 187.61,6.57 187.61,9.83 187.61,12.18 187.61,15.92 
								187.61,18.16 187.61,22.15 192.91,22.15 198.92,22.15 198.92,18.16 192.83,18.16 192.83,15.92 197.71,15.92 197.71,12.18 
								192.83,12.18 192.83,9.83 							"/>
						</g>
						<g>
							<g>
								<path class="st2" d="M149.09,22.15h5.18L148.3,6.57h-4.58l-5.98,15.58h5.19l0.62-2.11h4.95L149.09,22.15z M144.55,16.53
									l1.45-5l1.46,5H144.55z"/>
							</g>
						</g>
						<path class="st2" d="M168.94,14.56c-0.85-0.75-1.93-1.24-3.73-1.77l-2.69-0.59c-0.09-0.02-0.19-0.05-0.29-0.08
							c-1.19-0.32-1.57-1.01-1.31-1.45c0.19-0.32,0.75-0.56,1.37-0.61c0.15-0.02,0.3-0.02,0.44-0.02c0.88,0.03,1.71,0.04,2.9,1.36
							l4.03-1.73c-1.53-2.25-3.97-3.35-7.15-3.35c-4.07,0-6.96,2.05-6.96,4.52c0,1.09,0.41,2.04,1.3,2.82
							c0.83,0.72,2.06,1.25,3.97,1.72c3.35,0.81,3.95,1.16,4.06,1.8c0.04,0.27-0.11,0.5-0.25,0.64c-0.41,0.44-1.19,0.73-1.96,0.69
							c-1.11-0.06-2.59-0.35-3.96-2.05l-3.91,2c1.85,2.47,4.77,3.92,7.98,3.92c2.54,0,4.5-0.72,5.7-1.67
							c1.37-1.08,1.84-2.16,1.84-3.41C170.34,16.17,169.81,15.32,168.94,14.56z"/>
					</g>
					<g>
						<path class="st2" d="M202.23,6.57c-0.86,0-1.55-0.69-1.55-1.54c0-0.85,0.69-1.54,1.55-1.54c0.84,0,1.53,0.69,1.53,1.54
							C203.76,5.88,203.07,6.57,202.23,6.57z M202.23,3.67c-0.75,0-1.37,0.61-1.37,1.36c0,0.75,0.61,1.36,1.37,1.36
							c0.75,0,1.35-0.61,1.35-1.36C203.58,4.28,202.98,3.67,202.23,3.67z"/>
						<g>
							<path class="st2" d="M202.93,5.86h-0.13l-0.04-0.22c-0.17,0.17-0.35,0.26-0.57,0.26c-0.45,0-0.75-0.35-0.75-0.86
								c0-0.3,0.1-0.55,0.3-0.72c0.12-0.1,0.29-0.15,0.5-0.15c0.38,0,0.63,0.19,0.69,0.52h-0.23c-0.04-0.21-0.23-0.35-0.48-0.35
								c-0.34,0-0.57,0.27-0.57,0.68c0,0.21,0.06,0.4,0.16,0.52c0.1,0.11,0.26,0.17,0.42,0.17c0.3,0,0.53-0.21,0.53-0.51V5.16h-0.51
								V4.97h0.69V5.86z"/>
						</g>
					</g>
				</g>
				<g>
					<g>
						<g>
							<polygon class="st2" points="22.22,6.57 8.88,6.57 8.88,10.65 12.72,10.65 12.72,22.15 18.38,22.15 18.38,10.65 22.22,10.65 
															"/>
						</g>
						<g>
							<polygon class="st2" points="69.61,6.57 56.27,6.57 56.27,10.65 60.11,10.65 60.11,22.15 65.77,22.15 65.77,10.65 
								69.61,10.65 							"/>
						</g>
						<g>
							<polygon class="st2" points="83.01,9.83 83.01,6.57 77.31,6.57 72.01,6.57 72.01,9.83 72.01,12.18 72.01,15.92 72.01,18.16 
								72.01,22.15 77.31,22.15 83.32,22.15 83.32,18.16 77.23,18.16 77.23,15.92 82.11,15.92 82.11,12.18 77.23,12.18 77.23,9.83 
															"/>
						</g>
						<g>
							<g>
								<path class="st2" d="M33.5,22.15h5.18L32.69,6.57h-4.58l-5.98,15.58h5.19l0.61-2.11h4.95L33.5,22.15z M28.95,16.53l1.45-5
									l1.46,5H28.95z"/>
							</g>
						</g>
						<path class="st2" d="M53.35,14.56c-0.85-0.75-1.93-1.24-3.72-1.77l-2.69-0.59c-0.09-0.02-0.19-0.05-0.29-0.07
							c-1.18-0.32-1.57-1.01-1.31-1.45c0.19-0.32,0.75-0.57,1.37-0.62c0.15-0.02,0.3-0.02,0.44-0.02c0.87,0.03,1.71,0.04,2.9,1.36
							l4.03-1.73c-1.53-2.25-3.97-3.35-7.15-3.35c-4.07,0-6.95,2.05-6.95,4.52c0,1.09,0.4,2.04,1.29,2.82
							c0.83,0.72,2.06,1.25,3.98,1.71c3.35,0.82,3.95,1.17,4.05,1.81c0.04,0.27-0.11,0.5-0.24,0.64c-0.41,0.44-1.19,0.73-1.96,0.69
							c-1.11-0.06-2.59-0.35-3.97-2.05l-3.91,2c1.85,2.47,4.77,3.92,7.98,3.92c2.54,0,4.5-0.72,5.7-1.67
							c1.37-1.08,1.84-2.15,1.84-3.41C54.74,16.17,54.21,15.32,53.35,14.56z"/>
					</g>
				</g>
			</g>
		</g>
	</g>
	<g>
		<path class="st2" d="M62.77,35.32h-0.65l-0.13-0.69c-0.4,0.59-0.87,0.84-1.58,0.84c-1.41,0-2.44-1.15-2.44-2.74
			C57.98,31.11,59,30,60.5,30c1.26,0,2.14,0.67,2.27,1.75h-1.01c-0.09-0.27-0.17-0.39-0.32-0.52c-0.24-0.21-0.55-0.31-0.92-0.31
			c-0.92,0-1.46,0.68-1.46,1.81c0,1.08,0.62,1.84,1.49,1.84c0.41,0,0.81-0.19,1.07-0.5c0.16-0.19,0.23-0.37,0.26-0.66h-1.19V32.5
			h2.09V35.32z"/>
		<path class="st2" d="M65.19,35.31h-1.08v-5.23h2.8c0.45,0,0.77,0.12,1.01,0.36c0.25,0.26,0.4,0.64,0.4,1.05
			c0,0.64-0.29,1.06-0.88,1.29c0.67,0.29,0.7,0.36,0.72,1.9c0,0.23,0.07,0.34,0.23,0.43v0.19h-1.15c-0.13-0.25-0.16-0.4-0.16-0.9
			c0-0.08,0-0.2,0.01-0.34v-0.22c0-0.43-0.2-0.62-0.67-0.62h-1.23V35.31z M66.49,32.34c0.31,0,0.44-0.04,0.56-0.14
			c0.13-0.11,0.19-0.31,0.19-0.56c0-0.24-0.06-0.42-0.19-0.53c-0.14-0.11-0.26-0.14-0.56-0.14h-1.3v1.36H66.49z"/>
		<path class="st2" d="M73.54,30.72c0.46,0.49,0.73,1.23,0.73,2.05c0,0.74-0.28,1.5-0.73,1.98c-0.45,0.49-1.04,0.72-1.79,0.72
			c-0.75,0-1.33-0.24-1.78-0.72c-0.47-0.49-0.73-1.23-0.73-2.02c0-0.78,0.26-1.51,0.73-2.01c0.44-0.48,1.04-0.72,1.78-0.72
			C72.51,30,73.08,30.22,73.54,30.72z M70.32,32.73c0,1.1,0.57,1.82,1.44,1.82c0.86,0,1.44-0.72,1.44-1.79
			c0-1.14-0.56-1.85-1.44-1.85C70.88,30.91,70.32,31.63,70.32,32.73z"/>
		<path class="st2" d="M78.68,31.85c-0.14-0.64-0.5-0.94-1.12-0.94c-0.84,0-1.35,0.69-1.35,1.84c0,1.14,0.49,1.81,1.32,1.81
			c0.67,0,1.08-0.38,1.15-1.04h1.05c-0.07,1.2-0.92,1.95-2.23,1.95c-1.46,0-2.36-1.05-2.36-2.73c0-1.69,0.91-2.74,2.39-2.74
			c0.78,0,1.43,0.29,1.83,0.82c0.22,0.29,0.32,0.58,0.35,1.03H78.68z"/>
		<path class="st2" d="M81.93,34.41h2.83v0.9h-3.91v-5.23h3.78v0.9h-2.7v1.18h2.5v0.89h-2.5V34.41z"/>
		<path class="st2" d="M87,35.31h-1.07v-5.23h2.8c0.44,0,0.77,0.12,1.01,0.36c0.25,0.26,0.39,0.64,0.39,1.05
			c0,0.64-0.3,1.06-0.88,1.29c0.67,0.29,0.69,0.36,0.72,1.9c0,0.23,0.06,0.34,0.23,0.43v0.19h-1.15c-0.13-0.25-0.16-0.4-0.16-0.9
			c0-0.08,0-0.2,0.01-0.34v-0.22c0-0.43-0.2-0.62-0.67-0.62H87V35.31z M88.3,32.34c0.31,0,0.45-0.04,0.57-0.14
			c0.13-0.11,0.19-0.31,0.19-0.56c0-0.24-0.06-0.42-0.19-0.53c-0.14-0.11-0.26-0.14-0.57-0.14H87v1.36H88.3z"/>
		<path class="st2" d="M93.55,35.31h-1.07v-1.94l-1.74-3.29h1.2l1.07,2.31L94,30.08h1.21l-1.66,3.29V35.31z"/>
		<path class="st2" d="M101.24,31.67c-0.03-0.53-0.42-0.82-1.1-0.82c-0.56,0-0.9,0.25-0.9,0.65c0,0.38,0.22,0.53,0.99,0.68
			l0.82,0.16c0.96,0.19,1.38,0.62,1.38,1.44c0,1.07-0.79,1.69-2.14,1.69c-1.33,0-2.1-0.61-2.17-1.73h1.05
			c0.04,0.56,0.44,0.87,1.17,0.87c0.65,0,1.06-0.26,1.06-0.7c0-0.42-0.27-0.62-0.98-0.76L99.69,33c-1.06-0.2-1.47-0.59-1.47-1.4
			c0-1.02,0.72-1.6,1.98-1.6c1.32,0,2.04,0.6,2.05,1.68H101.24z"/>
		<path class="st2" d="M104.61,34.41h2.83v0.9h-3.91v-5.23h3.78v0.9h-2.7v1.18h2.5v0.89h-2.5V34.41z"/>
		<path class="st2" d="M109.69,34.41h2.5v0.9h-3.57v-5.23h1.07V34.41z"/>
		<path class="st2" d="M114.35,34.41h2.83v0.9h-3.91v-5.23h3.78v0.9h-2.71v1.18h2.5v0.89h-2.5V34.41z"/>
		<path class="st2" d="M121.56,31.85c-0.14-0.64-0.49-0.94-1.12-0.94c-0.84,0-1.35,0.69-1.35,1.84c0,1.14,0.49,1.81,1.32,1.81
			c0.67,0,1.09-0.38,1.16-1.04h1.05c-0.07,1.2-0.93,1.95-2.23,1.95c-1.45,0-2.36-1.05-2.36-2.73c0-1.69,0.92-2.74,2.39-2.74
			c0.78,0,1.43,0.29,1.83,0.82c0.22,0.29,0.31,0.58,0.35,1.03H121.56z"/>
		<path class="st2" d="M125.89,35.31h-1.08v-4.33h-1.58v-0.9h4.18v0.9h-1.52V35.31z"/>
		<path class="st2" d="M133.43,31.67c-0.04-0.53-0.41-0.82-1.1-0.82c-0.56,0-0.9,0.25-0.9,0.65c0,0.38,0.22,0.53,0.98,0.68
			l0.82,0.16c0.97,0.19,1.38,0.62,1.38,1.44c0,1.07-0.79,1.69-2.14,1.69c-1.33,0-2.1-0.61-2.16-1.73h1.05
			c0.03,0.56,0.45,0.87,1.17,0.87c0.65,0,1.05-0.26,1.05-0.7c0-0.42-0.27-0.62-0.98-0.76L131.87,33c-1.06-0.2-1.47-0.59-1.47-1.4
			c0-1.02,0.72-1.6,1.98-1.6c1.32,0,2.04,0.6,2.05,1.68H133.43z"/>
		<path class="st2" d="M136.72,32.94v2.37h-1.08v-5.23h1.08v1.96h2.06v-1.96h1.08v5.23h-1.07v-2.37H136.72z"/>
		<path class="st2" d="M145.21,30.72c0.46,0.49,0.73,1.23,0.73,2.05c0,0.74-0.28,1.5-0.73,1.98c-0.45,0.49-1.04,0.72-1.79,0.72
			c-0.74,0-1.33-0.24-1.79-0.72c-0.47-0.49-0.73-1.23-0.73-2.02c0-0.78,0.26-1.51,0.73-2.01c0.44-0.48,1.05-0.72,1.78-0.72
			C144.17,30,144.75,30.22,145.21,30.72z M141.98,32.73c0,1.1,0.56,1.82,1.44,1.82c0.86,0,1.44-0.72,1.44-1.79
			c0-1.14-0.56-1.85-1.44-1.85C142.54,30.91,141.98,31.63,141.98,32.73z"/>
		<path class="st2" d="M148.11,35.31h-1.08v-5.23h2.31c1.09,0,1.68,0.58,1.68,1.62c0,1.06-0.62,1.74-1.58,1.74h-1.34V35.31z
			 M149.12,32.55c0.57,0,0.84-0.25,0.84-0.79c0-0.53-0.26-0.78-0.84-0.78h-1.01v1.57H149.12z"/>
	</g>
</g>
</svg>
